<?xml version="1.0" encoding="UTF-8" standalone="no"?>
<svg
   xmlns:dc="http://purl.org/dc/elements/1.1/"
   xmlns:cc="http://creativecommons.org/ns#"
   xmlns:rdf="http://www.w3.org/1999/02/22-rdf-syntax-ns#"
   xmlns:svg="http://www.w3.org/2000/svg"
   xmlns="http://www.w3.org/2000/svg"
   xmlns:sodipodi="http://sodipodi.sourceforge.net/DTD/sodipodi-0.dtd"
   xmlns:inkscape="http://www.inkscape.org/namespaces/inkscape"
   width="12.927827mm"
   height="20.577669mm"
   viewBox="13 219 45.80726 72.912997"
   id="svg19165"
   version="1.1"
   inkscape:version="0.91 r13725"
   sodipodi:docname="fighter.svg">
  <metadata
     id="metadata20259">
    <rdf:RDF>
      <cc:Work
         rdf:about="">
        <dc:format>image/svg+xml</dc:format>
        <dc:type
           rdf:resource="http://purl.org/dc/dcmitype/StillImage" />
        <dc:title>generated by pstoedit</dc:title>
      </cc:Work>
    </rdf:RDF>
  </metadata>
  <defs
     id="defs20257" />
  <sodipodi:namedview
     pagecolor="#ffffff"
     bordercolor="#666666"
     borderopacity="1"
     objecttolerance="10"
     gridtolerance="10"
     guidetolerance="10"
     inkscape:pageopacity="0"
     inkscape:pageshadow="2"
     inkscape:window-width="1196"
     inkscape:window-height="1878"
     id="namedview20255"
     showgrid="false"
     inkscape:zoom="5.3789174"
     inkscape:cx="15.456555"
     inkscape:cy="62.413883"
     inkscape:window-x="2400"
     inkscape:window-y="40"
     inkscape:window-maximized="0"
     inkscape:current-layer="svg19165"
     units="mm"
     fit-margin-top="0"
     fit-margin-left="0"
     fit-margin-bottom="0"
     fit-margin-right="0" />
  <title
     id="title19167">generated by pstoedit</title>
  <path
     style="fill:#ffffff;fill-opacity:1;stroke:#000000;stroke-width:1.99999976;stroke-linecap:butt;stroke-linejoin:miter;stroke-miterlimit:4;stroke-dasharray:none;stroke-dashoffset:0;stroke-opacity:1"
     d="m 34.05724,290.65136 c -0.31293,-0.82307 -0.75085,-3.11793 -0.94717,-4.96359 -0.1608,-1.51173 -0.18934,-1.63618 -0.37521,-1.63618 -0.1339,0 -0.15633,0.37869 -0.15633,2.63899 l 0,2.63899 -0.95003,0 -0.95004,0 0,0.37341 0,0.3734 -3.639,-0.0303 c -3.62592,-0.0302 -3.63986,-0.0312 -3.87931,-0.27053 -0.23087,-0.23075 -0.24158,-0.31999 -0.2723,-2.26953 l -0.032,-2.02934 4.01517,-3.58903 4.01518,-3.58903 -0.0247,-2.69177 -0.0247,-2.69177 -8.12809,0 -8.12809,0 -0.0317,0.60697 c -0.0295,0.56515 -0.0495,0.60697 -0.29029,0.60697 l -0.25863,0 0,-5.97035 c 0,-3.95335 0.0357,-5.94831 0.10556,-5.90511 0.0592,0.0366 0.10556,0.53891 0.10556,1.14465 0,0.80882 0.0529,1.23 0.21112,1.68009 0.11611,0.33037 0.21112,0.81874 0.21112,1.08527 0,0.26653 0.0492,0.57648 0.10927,0.68877 0.0753,0.14075 0.0753,0.20418 0,0.20418 -0.0601,0 -0.10927,0.0747 -0.10927,0.16608 0,0.0914 0.0622,0.15072 0.13814,0.13195 0.076,-0.0188 3.39419,-2.87506 7.37379,-6.34731 l 7.23565,-6.31319 0.0683,-0.91765 c 0.0886,-1.19043 0.37093,-2.49208 0.90336,-4.16458 0.44718,-1.40466 0.89939,-3.12157 1.27174,-4.82838 0.50663,-2.32229 1.05933,-6.23788 1.0596,-7.50671 2e-4,-0.81267 0.1806,-1.70519 0.37383,-1.8492 0.12088,-0.0901 0.18549,-0.49213 0.26295,-1.63618 0.32629,-4.81893 1.18108,-9.25625 2.23877,-11.62173 l 0.32242,-0.72108 0.20073,0.44835 c 0.79046,1.76555 1.49947,4.57265 1.92798,7.63319 0.20603,1.47151 0.47824,4.45719 0.4788,5.25159 4e-4,0.46184 0.0373,0.60697 0.1547,0.60697 0.21513,0 0.34153,0.58373 0.42287,1.95285 0.21055,3.54421 1.14742,8.5061 2.27212,12.0338 0.57584,1.80616 0.73217,2.48302 0.93775,4.06006 l 0.17148,1.31551 7.23083,6.31034 c 3.97696,3.47069 7.26722,6.29859 7.3117,6.28422 0.0445,-0.0144 0.1019,-0.46475 0.12762,-1.00084 0.0257,-0.53609 0.10806,-1.08211 0.18298,-1.21337 0.0806,-0.14126 0.15779,-0.76429 0.18906,-1.52662 0.0338,-0.82494 0.10027,-1.33535 0.18478,-1.41978 0.10556,-0.10545 0.13195,1.07586 0.13195,5.9062 l 0,6.03801 -0.31668,0 c -0.31667,0 -0.31667,0 -0.31667,-0.63336 l 0,-0.63336 -8.1281,0 -8.12809,0 0,2.72789 0,2.72788 3.9321,3.52964 3.93209,3.52964 0.03,1.94973 c 0.0165,1.07236 0.004,2.05576 -0.0279,2.18533 -0.12788,0.52011 -0.40102,0.55611 -4.21923,0.55611 l -3.54149,0 0,-0.36946 0,-0.36946 -0.89541,0 -0.89541,0 -0.0282,-2.6112 c -0.025,-2.31453 -0.0478,-2.61496 -0.2001,-2.64426 -0.13991,-0.0269 -0.18508,0.10044 -0.24293,0.68475 -0.2054,2.0749 -0.60674,4.41897 -0.95879,5.59992 l -0.1652,0.55419 -1.74026,0 -1.74026,0 -0.0995,-0.26161 z"
     id="path7115"
     inkscape:connector-curvature="0" />
</svg>
