<?xml version="1.0" encoding="UTF-8" standalone="no"?>
<!-- Created with Inkscape (http://www.inkscape.org/) -->

<svg
   xmlns:dc="http://purl.org/dc/elements/1.1/"
   xmlns:cc="http://creativecommons.org/ns#"
   xmlns:rdf="http://www.w3.org/1999/02/22-rdf-syntax-ns#"
   xmlns:svg="http://www.w3.org/2000/svg"
   xmlns="http://www.w3.org/2000/svg"
   xmlns:sodipodi="http://sodipodi.sourceforge.net/DTD/sodipodi-0.dtd"
   xmlns:inkscape="http://www.inkscape.org/namespaces/inkscape"
   id="svg2985"
   version="1.1"
   inkscape:version="0.91 r13725"
   width="79.224701"
   height="54.22982"
   sodipodi:docname="transport.svg">
  <metadata
     id="metadata2991">
    <rdf:RDF>
      <cc:Work
         rdf:about="">
        <dc:format>image/svg+xml</dc:format>
        <dc:type
           rdf:resource="http://purl.org/dc/dcmitype/StillImage" />
        <dc:title></dc:title>
      </cc:Work>
    </rdf:RDF>
  </metadata>
  <defs
     id="defs2989" />
  <sodipodi:namedview
     pagecolor="#ffffff"
     bordercolor="#666666"
     borderopacity="1"
     objecttolerance="10"
     gridtolerance="10"
     guidetolerance="10"
     inkscape:pageopacity="0"
     inkscape:pageshadow="2"
     inkscape:window-width="1196"
     inkscape:window-height="1878"
     id="namedview2987"
     showgrid="false"
     inkscape:zoom="7.6626214"
     inkscape:cx="28.368316"
     inkscape:cy="18.297628"
     inkscape:window-x="2400"
     inkscape:window-y="40"
     inkscape:window-maximized="0"
     inkscape:current-layer="svg2985"
     showguides="true"
     inkscape:guide-bbox="true"
     fit-margin-top="0"
     fit-margin-left="0"
     fit-margin-right="0"
     fit-margin-bottom="0">
    <inkscape:grid
       type="xygrid"
       id="grid3175"
       originx="-399.78081"
       originy="-607.79767" />
    <sodipodi:guide
       position="-196.71714,-533.14959"
       orientation="1,0"
       id="guide6375" />
    <sodipodi:guide
       position="-167.48433,-632.33235"
       orientation="1,0"
       id="guide6377" />
  </sodipodi:namedview>
  <path
     style="fill:#ffffff;fill-opacity:1;stroke:#000704;stroke-width:1.5;stroke-linecap:butt;stroke-linejoin:miter;stroke-miterlimit:4;stroke-dasharray:none;stroke-dashoffset:0;stroke-opacity:1"
     d="m 39.034342,1.0830901 c -0.25074,0.17683 -0.61952,0.81781 -0.81953,1.42441 -0.2,0.6066 -0.58826,1.43382 -0.86279,1.83826 -0.27452,0.40444 -0.70318,1.34989 -0.95256,2.101 -0.41651,1.25446 -0.46028,1.89874 -0.53757,7.9129999 l -0.0841,6.54735 -1.92556,0.12162 c -1.05906,0.0669 -3.02337,0.14628 -4.36512,0.17642 l -2.43954,0.0548 -0.13208,-2.20663 c -0.14533,-2.42811 -0.3444,-3.39653 -0.72421,-3.52313 -0.39876,-0.13292 -0.65845,0.86042 -0.87748,3.35646 -0.11226,1.27922 -0.23028,2.34765 -0.26227,2.37428 -0.032,0.0266 -1.91224,0.0966 -4.17833,0.15535 l -4.12017,0.10692 -0.14246,-2.2332 c -0.16247,-2.547 -0.45279,-3.87464 -0.82083,-3.75368 -0.29867,0.0982 -0.71753,2.15616 -0.89152,4.38033 l -0.12511,1.59925 -6.7000996,0.10181 c -4.99891,0.076 -6.78213,0.16987 -7.02314,0.36989 -0.55264004,0.45866 -0.28104004,4.1601 0.33311,4.53967 0.10134,0.0626 5.92786,0.86733 12.9478196,1.78822 11.81071,1.54936 13.03309,1.6735 16.3739,1.66282 l 3.61033,-0.0115 0.7699,1.00356 0.76989,1.00355 -0.0684,5.56765 c -0.0542,4.4134 -0.007,5.72883 0.22789,6.34514 0.21856,0.57351 0.23854,0.90424 0.0762,1.2606 -0.20378,0.44719 -0.65959,0.56 -6.13135,1.51758 l -5.91119,1.03447 0,1.2241 c 0,0.67325 0.0236,1.2299 0.0525,1.23699 0.0289,0.007 3.09039,0.46299 6.80334,1.01312 6.61103,0.97952 6.76827,1.01405 7.59383,1.6679 0.98351,0.77896 1.50949,0.83716 2.06075,0.22802 0.21884,-0.24181 0.58804,-0.54285 0.82044,-0.66897 0.2324,-0.12612 3.40072,-0.66238 7.0407,-1.19168 l 6.61814,-0.96237 0.0626,-1.31005 c 0.0367,-0.76965 -0.0236,-1.31006 -0.1462,-1.31006 -0.24764,0 -10.61974,-1.83197 -11.3347,-2.00199 -0.45884,-0.10911 -0.48292,-0.18607 -0.3462,-1.10611 0.0808,-0.54387 0.20819,-3.63611 0.28305,-6.87164 0.13246,-5.72505 0.14982,-5.90674 0.64752,-6.77572 l 0.51141,-0.89293 3.63276,0 c 3.32431,0 4.72448,-0.14218 16.49043,-1.67458 8.65859,-1.12769 12.91222,-1.76238 13.02469,-1.94342 0.25344,-0.40794 0.60082,-2.18608 0.60082,-3.07537 0,-1.6202 0.3083,-1.55246 -7.86652,-1.72824 -4.01229,-0.0863 -7.33363,-0.19541 -7.38075,-0.24253 -0.0471,-0.0471 -0.17341,-1.32316 -0.28065,-2.83566 -0.18503,-2.60951 -0.46128,-3.76867 -0.84207,-3.53333 -0.25169,0.15555 -0.6166,2.25595 -0.77756,4.47562 l -0.14093,1.94342 -1.61766,0 c -0.88972,0 -2.75243,-0.061 -4.13936,-0.13559 l -2.52168,-0.13559 -0.2334,-2.38222 c -0.22718,-2.31879 -0.51308,-3.35241 -0.8668,-3.1338 -0.29004,0.17926 -0.66456,1.9843 -0.79489,3.83099 l -0.12322,1.74611 -1.91222,-0.001 c -1.05172,-6.1e-4 -2.68311,-0.0613 -3.62531,-0.13464 l -1.7131,-0.13337 -0.0936,-6.32593 c -0.0981,-6.6273299 -0.24264,-7.7890999 -1.19208,-9.5824899 -0.34071,-0.64356 -0.88011,-1.73139 -1.77103,-3.5717 -0.30574,-0.63154 -0.91571,-0.75908 -1.53651,-0.32127 l 0,0 z"
     id="path6382"
     inkscape:connector-curvature="0" />
</svg>
