<?xml version="1.0" encoding="UTF-8" standalone="no"?>
<!-- Created with Inkscape (http://www.inkscape.org/) -->

<svg
   xmlns:dc="http://purl.org/dc/elements/1.1/"
   xmlns:cc="http://creativecommons.org/ns#"
   xmlns:rdf="http://www.w3.org/1999/02/22-rdf-syntax-ns#"
   xmlns:svg="http://www.w3.org/2000/svg"
   xmlns="http://www.w3.org/2000/svg"
   xmlns:sodipodi="http://sodipodi.sourceforge.net/DTD/sodipodi-0.dtd"
   xmlns:inkscape="http://www.inkscape.org/namespaces/inkscape"
   width="17.765375mm"
   height="20.575457mm"
   viewBox="0 0 62.94818 72.905161"
   id="svg12023"
   version="1.1"
   inkscape:version="0.91 r13725"
   sodipodi:docname="civil_ownship.svg">
  <defs
     id="defs12025" />
  <sodipodi:namedview
     id="base"
     pagecolor="#ffffff"
     bordercolor="#666666"
     borderopacity="1.0"
     inkscape:pageopacity="0.0"
     inkscape:pageshadow="2"
     inkscape:zoom="2.8"
     inkscape:cx="47.100259"
     inkscape:cy="109.41431"
     inkscape:document-units="px"
     inkscape:current-layer="layer1"
     showgrid="false"
     fit-margin-top="0"
     fit-margin-left="0"
     fit-margin-bottom="0"
     fit-margin-right="0"
     inkscape:window-width="1196"
     inkscape:window-height="1878"
     inkscape:window-x="2400"
     inkscape:window-y="40"
     inkscape:window-maximized="0" />
  <metadata
     id="metadata12028">
    <rdf:RDF>
      <cc:Work
         rdf:about="">
        <dc:format>image/svg+xml</dc:format>
        <dc:type
           rdf:resource="http://purl.org/dc/dcmitype/StillImage" />
        <dc:title></dc:title>
      </cc:Work>
    </rdf:RDF>
  </metadata>
  <g
     inkscape:label="Layer 1"
     inkscape:groupmode="layer"
     id="layer1"
     transform="translate(-211.32339,-261.70232)">
    <path
       style="fill:#000000;fill-opacity:1;stroke:#ffffff;stroke-width:2;stroke-miterlimit:4;stroke-dasharray:none;stroke-opacity:1"
       d="m 212.52827,302.78383 c 0.11801,-0.12668 2.29137,-1.18078 7.80578,-3.78588 4.20323,-1.98567 8.21763,-3.87569 8.92089,-4.20005 2.10357,-0.9702 4.25252,-2.14369 4.19589,-2.29127 -0.018,-0.047 -0.0328,-0.0967 -0.0328,-0.11036 0,-0.0137 -0.11701,-0.0249 -0.26002,-0.0249 -0.2991,0 -0.26695,0.0874 -0.40489,-1.10024 -0.0854,-0.73549 -0.10669,-3.90648 -0.0298,-4.44404 0.089,-0.62255 0.0517,-0.60831 1.65067,-0.62918 1.53527,-0.02 1.67123,0.003 1.78,0.30616 0.12174,0.33888 0.19959,2.07594 0.14235,3.17625 -0.0294,0.56429 -0.0348,1.01926 -0.0122,1.01103 0.0226,-0.008 0.60827,-0.49668 1.3014,-1.08545 0.69312,-0.58878 1.39049,-1.17449 1.54972,-1.30158 l 0.2895,-0.23106 6e-4,-5.59725 c -9e-5,-3.07849 0.0271,-6.17264 0.0602,-6.87591 0.18152,-3.86123 0.76857,-7.35311 1.71974,-10.22928 0.78939,-2.38697 1.35296,-3.06884 2.03051,-2.45672 0.79099,0.71461 1.94282,4.52444 2.45989,8.13635 0.4073,2.84516 0.44948,3.86484 0.44948,10.86464 l 0,6.10886 0.27701,0.22598 c 0.15236,0.1243 0.31972,0.26613 0.37191,0.3152 0.1026,0.0965 2.29672,1.9476 2.44366,2.06167 0.0788,0.0612 0.0892,-0.13564 0.0892,-1.69501 0,-1.9057 0.0373,-2.37085 0.20689,-2.58048 0.10742,-0.13278 0.13577,-0.13569 1.49247,-0.1534 1.53573,-0.02 1.67172,0.003 1.77921,0.30616 0.23185,0.65316 0.22247,3.33285 -0.0185,5.27257 l -0.0702,0.56499 -0.28619,0.0183 c -0.25245,0.0161 -0.284,0.033 -0.26763,0.14326 0.0135,0.0906 0.23134,0.24629 0.79171,0.56579 0.88043,0.502 2.43508,1.2934 3.39387,1.72767 0.83015,0.376 15.80122,7.45302 16.33461,7.72157 0.59213,0.29813 0.5814,0.2588 0.5814,2.13131 0,1.73775 -0.0574,2.01386 -0.2091,1.0056 -0.0442,-0.29399 -0.20907,-0.46345 -0.53431,-0.54927 -0.45935,-0.12122 -13.00481,-2.92149 -13.08851,-2.92149 l -0.8578,-0.21158 -2.36403,-0.52757 c -1.30022,-0.29016 -2.39357,-0.5383 -2.42967,-0.55143 l -0.85614,-0.18079 -0.55012,-0.13207 c -0.30257,-0.0726 -0.72495,-0.14621 -0.93864,-0.16347 l -0.38851,-0.0314 -0.81353,0.0141 -2.04453,0 -2.04453,0 0,7.24377 c 0,7.38109 -0.0134,7.92659 -0.2412,9.82486 -0.16827,1.40213 -0.29517,2.0869 -0.92478,4.99019 -0.3079,1.41985 -0.54997,2.5914 -0.53794,2.60344 0.012,0.012 2.45438,1.36002 5.42743,2.99552 2.97304,1.6355 5.43898,3.01821 5.47987,3.07269 0.053,0.0706 0.0743,0.40359 0.0743,1.15933 l 0,1.06028 -0.13381,-0.0309 c -0.91804,-0.21197 -12.04242,-2.46512 -12.08676,-2.44806 -0.0333,0.0128 -0.11134,0.25547 -0.17346,0.53928 -0.10103,0.46151 -0.12615,0.51413 -0.23789,0.49817 -0.0831,-0.0118 -0.13055,-0.0677 -0.14168,-0.16652 -0.0326,-0.28988 -0.20986,-0.89209 -0.26254,-0.89209 -0.0636,0 -11.92509,2.43156 -12.07615,2.47555 -0.0965,0.0281 -0.10408,-0.0499 -0.10408,-1.06472 0,-0.96829 0.012,-1.10565 0.10408,-1.18675 0.0572,-0.0504 2.50894,-1.4128 5.44822,-3.02746 2.93928,-1.61465 5.35844,-2.9717 5.37592,-3.01567 0.0175,-0.044 -0.21268,-1.20815 -0.51144,-2.58706 -0.60768,-2.8047 -0.73184,-3.46588 -0.90057,-4.79592 -0.25256,-1.99085 -0.25559,-2.09636 -0.28081,-9.76925 l -0.0246,-7.47868 -2.00953,0 -2.00952,0 -0.79071,0 -0.25276,-0.001 c -0.13902,-6e-4 -0.57708,0.0696 -0.97347,0.15607 l -0.72071,0.1572 -0.81852,0.18476 -2.40864,0.53957 -2.40864,0.53956 -0.87312,0.20815 c -0.17073,0 -13.13072,2.92677 -13.2976,3.00301 -0.21779,0.0995 -0.27681,0.2161 -0.3388,0.66936 -0.0997,0.72906 -0.1505,0.30418 -0.1505,-1.25928 l 0,-1.63807 0.16355,-0.17556 z"
       id="path13874"
       inkscape:connector-curvature="0"
       sodipodi:nodetypes="csscsscccccccscccssssccccsscccccccsssccccsccccccccssscscsccccccscscscssscccccccccccscsccc" />
  </g>
</svg>
