<?xml version="1.0" encoding="UTF-8" standalone="no"?>
<!-- Created with Inkscape (http://www.inkscape.org/) -->

<svg
   xmlns:dc="http://purl.org/dc/elements/1.1/"
   xmlns:cc="http://creativecommons.org/ns#"
   xmlns:rdf="http://www.w3.org/1999/02/22-rdf-syntax-ns#"
   xmlns:svg="http://www.w3.org/2000/svg"
   xmlns="http://www.w3.org/2000/svg"
   xmlns:sodipodi="http://sodipodi.sourceforge.net/DTD/sodipodi-0.dtd"
   xmlns:inkscape="http://www.inkscape.org/namespaces/inkscape"
   width="21.500448mm"
   height="15.084038mm"
   id="svg2"
   sodipodi:version="0.32"
   inkscape:version="0.91 r13725"
   sodipodi:docname="ga_ownship.svg"
   version="1.0">
  <defs
     id="defs4" />
  <sodipodi:namedview
     id="base"
     pagecolor="#ffffff"
     bordercolor="#666666"
     borderopacity="1.0"
     inkscape:pageopacity="0.0"
     inkscape:pageshadow="2"
     inkscape:zoom="2.8"
     inkscape:cx="20.76634"
     inkscape:cy="-139.73827"
     inkscape:document-units="px"
     inkscape:current-layer="layer2"
     inkscape:window-width="1196"
     inkscape:window-height="1878"
     inkscape:window-x="2400"
     inkscape:window-y="40"
     width="1800px"
     height="1200px"
     borderlayer="true"
     showguides="true"
     inkscape:guide-bbox="true"
     showgrid="false"
     units="mm"
     fit-margin-top="0"
     fit-margin-left="0"
     fit-margin-bottom="0"
     fit-margin-right="0"
     inkscape:window-maximized="0" />
  <metadata
     id="metadata7">
    <rdf:RDF>
      <cc:Work
         rdf:about="">
        <dc:format>image/svg+xml</dc:format>
        <dc:type
           rdf:resource="http://purl.org/dc/dcmitype/StillImage" />
        <dc:title></dc:title>
      </cc:Work>
    </rdf:RDF>
  </metadata>
  <g
     inkscape:label="Ebene 1"
     inkscape:groupmode="layer"
     id="layer1"
     transform="translate(-456.31385,548.48925)" />
  <g
     inkscape:groupmode="layer"
     id="layer2"
     inkscape:label="Draufsicht"
     transform="translate(-456.31385,548.48925)">
    <path
       style="fill:#000000;fill-opacity:1;stroke:#ffffff;stroke-width:2;stroke-linecap:butt;stroke-linejoin:miter;stroke-miterlimit:4;stroke-dasharray:none;stroke-dashoffset:0;stroke-opacity:1"
       d="m 494.0922,-497.57189 c -0.20264,-1.30727 -0.40864,-2.37638 -0.45779,-2.37581 -0.0491,6.3e-4 -0.35513,0.48912 -0.68,1.08565 -0.32487,0.59653 -0.65691,1.12554 -0.73788,1.17558 -0.24441,0.15106 -7.99227,-1.017 -8.37146,-1.26208 -0.68926,-0.44547 -0.85395,-0.91676 -0.93769,-2.68341 -0.0765,-1.61504 -0.0648,-1.69785 0.30233,-2.12463 l 0.38199,-0.44409 4.6133,-0.48466 c 2.53732,-0.26656 4.65513,-0.52661 4.70625,-0.57788 0.0969,-0.0972 -1.73664,-18.22675 -1.85537,-18.34548 -0.0372,-0.0372 -2.89401,-0.16121 -6.34838,-0.2755 l -6.28068,-0.20778 -9.86606,-1.72184 c -5.42633,-0.94702 -10.1357,-1.72185 -10.46527,-1.72185 l -0.59922,0 -0.11284,-2.25727 c -0.14927,-2.98602 -0.0519,-5.2017 0.2365,-5.37992 0.37806,-0.23365 1.47031,-0.30251 7.71479,-0.48637 7.52851,-0.22167 15.83906,-0.25536 21.28887,-0.0863 l 4.14444,0.12856 0.0993,-2.93401 c 0.11215,-3.31377 0.29095,-4.64602 0.74223,-5.53061 0.31762,-0.62258 1.09322,-1.2203 1.58483,-1.22135 0.15001,-3.1e-4 0.27275,-0.10316 0.27275,-0.22852 0,-0.12536 0.14531,-0.61632 0.32292,-1.09101 0.43068,-1.1511 0.76317,-1.15507 1.30228,-0.0155 0.22053,0.46616 0.40096,0.91876 0.40096,1.00578 0,0.087 0.30522,0.29323 0.67827,0.45825 1.24945,0.55269 1.55972,1.66483 1.81126,6.4924 0.084,1.61147 0.18344,2.9607 0.22106,2.99832 0.0376,0.0376 2.89732,-0.0185 6.35492,-0.12458 5.4344,-0.16681 7.5964,-0.1566 15.94977,0.0753 5.31477,0.14756 9.91902,0.33463 10.23166,0.41571 0.31264,0.0811 0.61072,0.25761 0.6624,0.39227 0.0517,0.13467 0.0939,1.85225 0.0939,3.81684 l 0,3.572 -0.66359,0 c -0.36497,0 -5.11671,0.77611 -10.55941,1.72471 l -9.89581,1.7247 -6.28722,0.21147 c -3.45796,0.1163 -6.30837,0.23442 -6.33424,0.26248 -0.087,0.0944 -1.92258,18.28568 -1.85234,18.35768 0.0382,0.0392 2.13814,0.2923 4.66652,0.56249 5.743,0.61371 5.41956,0.43457 5.34087,2.95803 -0.057,1.82605 -0.22379,2.31445 -0.95184,2.78611 -0.37013,0.23979 -7.94397,1.41636 -8.28212,1.2866 -0.10844,-0.0416 -0.46223,-0.61211 -0.78619,-1.26777 -0.32398,-0.65566 -0.62258,-1.15857 -0.66358,-1.11757 -0.041,0.041 -0.23034,1.14939 -0.42077,2.46311 l -0.34623,2.38858 -0.36845,-2.37684 z"
       id="path4248"
       inkscape:connector-curvature="0" />
  </g>
</svg>
