<?xml version="1.0" encoding="UTF-8" standalone="no"?>
<!-- Created with Inkscape (http://www.inkscape.org/) -->

<svg
   xmlns:dc="http://purl.org/dc/elements/1.1/"
   xmlns:cc="http://creativecommons.org/ns#"
   xmlns:rdf="http://www.w3.org/1999/02/22-rdf-syntax-ns#"
   xmlns:svg="http://www.w3.org/2000/svg"
   xmlns="http://www.w3.org/2000/svg"
   xmlns:sodipodi="http://sodipodi.sourceforge.net/DTD/sodipodi-0.dtd"
   xmlns:inkscape="http://www.inkscape.org/namespaces/inkscape"
   width="36.027969mm"
   height="15.011276mm"
   viewBox="0 0 127.65816 53.189561"
   id="svg10220"
   version="1.1"
   inkscape:version="0.91 r13725"
   sodipodi:docname="glider_ownship.svg">
  <defs
     id="defs10222" />
  <sodipodi:namedview
     id="base"
     pagecolor="#ffffff"
     bordercolor="#666666"
     borderopacity="1.0"
     inkscape:pageopacity="0.0"
     inkscape:pageshadow="2"
     inkscape:zoom="2.8"
     inkscape:cx="26.82596"
     inkscape:cy="12.279996"
     inkscape:document-units="px"
     inkscape:current-layer="layer1"
     showgrid="false"
     fit-margin-left="0"
     fit-margin-top="0"
     fit-margin-right="0"
     fit-margin-bottom="0"
     inkscape:window-width="1196"
     inkscape:window-height="1878"
     inkscape:window-x="2400"
     inkscape:window-y="40"
     inkscape:window-maximized="0" />
  <metadata
     id="metadata10225">
    <rdf:RDF>
      <cc:Work
         rdf:about="">
        <dc:format>image/svg+xml</dc:format>
        <dc:type
           rdf:resource="http://purl.org/dc/dcmitype/StillImage" />
        <dc:title></dc:title>
      </cc:Work>
    </rdf:RDF>
  </metadata>
  <g
     inkscape:label="Layer 1"
     inkscape:groupmode="layer"
     id="layer1"
     transform="translate(-210.45664,-448.60881)">
    <path
       id="path20292"
       style="overflow:visible;fill:#000000;fill-opacity:1;stroke:#ffffff;stroke-width:3;stroke-miterlimit:2.6099999;stroke-dasharray:none;stroke-opacity:1"
       d="m 274.28587,450.10881 c -0.69358,0 -1.06409,1.05457 -1.42374,2.44909 -0.79648,3.08836 -1.28526,6.40926 -1.04071,11.51522 l -58.86956,1.13809 c -0.60988,0.0119 -1.04053,0.85979 -0.99042,2.70015 l 28.26303,2.04081 32.18579,1.72092 1.28025,22.19738 -9.10874,1.26622 c -0.2778,0.0386 -0.54925,0.35748 -0.54925,0.63778 l 0,2.2675 9.91191,0.44585 c 0.0289,0.41595 0.0671,0.83323 0.11509,1.23482 l 0.22635,1.89798 m 0,-51.51181 c 0.69374,0 1.06359,1.05457 1.42357,2.44909 0.79698,3.08836 1.28509,6.40926 1.04053,11.51522 l 58.8699,1.13792 c 0.60955,0.0119 1.04037,0.85979 0.99009,2.70015 l -28.26287,2.04081 -32.18579,1.72092 -1.28041,22.19755 9.10891,1.26622 c 0.27796,0.0386 0.54941,0.35748 0.54941,0.63778 l 0,2.2675 -9.91206,0.44585 c -0.0291,0.41595 -0.0673,0.83323 -0.11527,1.23482 l -0.22651,1.89798"
       inkscape:connector-curvature="0" />
  </g>
</svg>
