<?xml version="1.0" encoding="UTF-8" standalone="no"?>
<!-- Created with Inkscape (http://www.inkscape.org/) -->

<svg
   xmlns:dc="http://purl.org/dc/elements/1.1/"
   xmlns:cc="http://creativecommons.org/ns#"
   xmlns:rdf="http://www.w3.org/1999/02/22-rdf-syntax-ns#"
   xmlns:svg="http://www.w3.org/2000/svg"
   xmlns="http://www.w3.org/2000/svg"
   xmlns:sodipodi="http://sodipodi.sourceforge.net/DTD/sodipodi-0.dtd"
   xmlns:inkscape="http://www.inkscape.org/namespaces/inkscape"
   id="svg2985"
   version="1.1"
   inkscape:version="0.91 r13725"
   width="13.49369mm"
   height="20.401951mm"
   sodipodi:docname="helo_ownship.svg">
  <metadata
     id="metadata2991">
    <rdf:RDF>
      <cc:Work
         rdf:about="">
        <dc:format>image/svg+xml</dc:format>
        <dc:type
           rdf:resource="http://purl.org/dc/dcmitype/StillImage" />
        <dc:title></dc:title>
      </cc:Work>
    </rdf:RDF>
  </metadata>
  <defs
     id="defs2989" />
  <sodipodi:namedview
     pagecolor="#ffffff"
     bordercolor="#666666"
     borderopacity="1"
     objecttolerance="10"
     gridtolerance="10"
     guidetolerance="10"
     inkscape:pageopacity="0"
     inkscape:pageshadow="2"
     inkscape:window-width="1196"
     inkscape:window-height="1878"
     id="namedview2987"
     showgrid="false"
     inkscape:zoom="5.6568542"
     inkscape:cx="31.080197"
     inkscape:cy="55.557776"
     inkscape:window-x="2400"
     inkscape:window-y="40"
     inkscape:window-maximized="0"
     inkscape:current-layer="g4194"
     fit-margin-top="0"
     fit-margin-left="0"
     fit-margin-right="0"
     fit-margin-bottom="0"
     units="mm" />
  <g
     id="g4194"
     transform="translate(-465.77977,263.2032)">
    <g
       transform="translate(-235.84287,-252.97727)"
       id="g4129">
      <g
         id="g4004"
         transform="translate(59.645512,1072.2828)">
        <g
           id="g3931" />
      </g>
    </g>
    <path
       style="fill:#000000;fill-opacity:1;stroke:#ffffff;stroke-width:2;stroke-linecap:butt;stroke-linejoin:miter;stroke-miterlimit:4;stroke-dasharray:none;stroke-dashoffset:0;stroke-opacity:1"
       d="m 489.233,-192.27639 c -0.0368,-0.56808 -0.0942,-1.98691 -0.12765,-3.15297 -0.0728,-2.53801 -0.45698,-11.7082 -0.55001,-13.12831 l -0.0659,-1.00569 -3.68643,0 -3.68644,0 0,-1.90265 0,-1.90266 3.70218,0 3.70219,0 -0.0718,-1.87547 c -0.0395,-1.03151 -0.13224,-3.53894 -0.2061,-5.57206 l -0.13428,-3.69659 -0.83887,-3.04424 c -0.46138,-1.67434 -1.03803,-3.76825 -1.28146,-4.65315 -0.30896,-1.12313 -0.48622,-1.59912 -0.5871,-1.57649 -0.0795,0.0178 -3.57549,3.60398 -7.76891,7.96921 -4.19341,4.36523 -7.85255,8.16535 -8.13142,8.4447 l -0.50704,0.50793 -0.89746,-0.84032 -0.89746,-0.84031 7.3377,-7.71312 7.3377,-7.71311 1.60527,-0.87387 c 1.42644,-0.77652 1.60335,-0.9037 1.588,-1.14159 -0.01,-0.14725 -0.0537,-1.76535 -0.0982,-3.59578 l -0.0809,-3.32806 -8.89862,-8.51147 c -4.89424,-4.68131 -8.89861,-8.55423 -8.89861,-8.60648 0,-0.0522 0.36185,-0.47241 0.80412,-0.9337 l 0.80412,-0.8387 0.5821,0.5396 c 3.8188,3.54003 15.10552,14.24065 15.24471,14.45308 0.10071,0.1537 0.25255,0.27945 0.33742,0.27945 0.13031,0 0.1607,-0.74025 0.19524,-4.75663 0.0356,-4.13617 0.0658,-4.84173 0.23187,-5.40898 0.54286,-1.85454 1.57643,-3.2407 2.91615,-3.91093 0.66554,-0.33296 0.87067,-0.38363 1.55303,-0.38363 1.82918,0 3.39212,1.40209 4.12064,3.69658 0.46335,1.45933 0.52895,2.43744 0.48361,7.21052 -0.0321,3.37493 -0.0113,4.42285 0.0876,4.42285 0.0713,0 3.64058,-3.65717 7.93174,-8.12705 4.29117,-4.46988 7.83116,-8.13973 7.86664,-8.15524 0.0355,-0.0155 0.46451,0.35144 0.95339,0.81542 l 0.88888,0.84362 -7.36094,7.70775 c -7.14904,7.48587 -7.40159,7.73664 -8.77356,8.71148 -0.77695,0.55205 -1.46868,0.98223 -1.53717,0.95594 -0.0897,-0.0344 -0.14303,0.55556 -0.19059,2.10647 -0.0363,1.18484 -0.0888,2.70198 -0.11656,3.37141 l -0.0505,1.21716 8.65725,8.35048 c 4.76149,4.59275 8.82968,8.50137 9.04043,8.6858 l 0.38318,0.33533 -0.87326,0.90669 -0.87326,0.90669 -7.73422,-7.36935 c -7.19062,-6.8514 -7.77731,-7.43765 -8.34732,-8.34101 -0.3372,-0.53442 -0.66424,-0.95461 -0.72675,-0.93378 -0.0625,0.0208 -0.40073,1.16052 -0.7516,2.53262 -0.35087,1.37211 -0.93684,3.52217 -1.30217,4.77792 l -0.66422,2.28319 -0.13945,4.07711 c -0.0767,2.24242 -0.1631,4.65199 -0.19201,5.35462 l -0.0526,1.27749 3.57761,0 3.57762,0 0,1.90266 0,1.90265 -3.6344,0 -3.6344,0 -0.059,0.5708 c -0.0653,0.63153 -0.3172,5.65398 -0.55153,10.99717 -0.10961,2.49913 -0.12106,3.71421 -0.041,4.34893 0.10283,0.81521 0.0912,0.9375 -0.15559,1.64188 l -0.26669,0.76106 -0.0668,-1.03287 z"
       id="path29058"
       inkscape:connector-curvature="0" />
  </g>
</svg>
