<?xml version="1.0" encoding="UTF-8" standalone="no"?>
<svg
   xmlns:dc="http://purl.org/dc/elements/1.1/"
   xmlns:cc="http://creativecommons.org/ns#"
   xmlns:rdf="http://www.w3.org/1999/02/22-rdf-syntax-ns#"
   xmlns:svg="http://www.w3.org/2000/svg"
   xmlns="http://www.w3.org/2000/svg"
   xmlns:sodipodi="http://sodipodi.sourceforge.net/DTD/sodipodi-0.dtd"
   xmlns:inkscape="http://www.inkscape.org/namespaces/inkscape"
   width="68.399345mm"
   height="110.36086mm"
   viewBox="13 219 242.35988 391.04241"
   id="svg19165"
   version="1.1"
   inkscape:version="0.91 r13725"
   sodipodi:docname="generated by pstoedit.svg">
  <metadata
     id="metadata20259">
    <rdf:RDF>
      <cc:Work
         rdf:about="">
        <dc:format>image/svg+xml</dc:format>
        <dc:type
           rdf:resource="http://purl.org/dc/dcmitype/StillImage" />
        <dc:title>generated by pstoedit</dc:title>
      </cc:Work>
    </rdf:RDF>
  </metadata>
  <defs
     id="defs20257" />
  <sodipodi:namedview
     pagecolor="#ffffff"
     bordercolor="#666666"
     borderopacity="1"
     objecttolerance="10"
     gridtolerance="10"
     guidetolerance="10"
     inkscape:pageopacity="0"
     inkscape:pageshadow="2"
     inkscape:window-width="1196"
     inkscape:window-height="1878"
     id="namedview20255"
     showgrid="false"
     inkscape:zoom="1.9017345"
     inkscape:cx="203.67972"
     inkscape:cy="69.505773"
     inkscape:window-x="2400"
     inkscape:window-y="40"
     inkscape:window-maximized="0"
     inkscape:current-layer="svg19165"
     units="mm"
     fit-margin-top="3"
     fit-margin-left="3"
     fit-margin-bottom="3"
     fit-margin-right="3" />
  <title
     id="title19167">generated by pstoedit</title>
  <path
     style="fill:none;stroke:#000000;stroke-width:1.20000005;stroke-linecap:round"
     d="m 137.42994,564.54147 15.22,0 -2.57,0 0,26.676 9.07,0 0,3.422 35.56,0 c 0,0 4.96,0 4.96,-5.817 l 0,-18.125 -39.84,-35.738 0,-25.651 79.85,0 0,5.99 4.45,0 0,-60.02 c 0,0 0,-1.54 -0.68,-1.54 0,0 -2.23,0.68 -2.23,4.27 l 0,9.06 -1.54,3.25 0,39.16"
     id="path19505"
     inkscape:connector-curvature="0" />
  <path
     style="fill:none;stroke:#000000;stroke-width:1.20000005;stroke-linecap:round"
     d="m 239.67994,480.57847 -72.5,-63.26 c 0,0 0.68,-10.44 -5.81,-28.22 0,0 -8.38,-26.33 -10.6,-57.45 0,0 0.17,-10.95 -2.74,-10.95 0,0 -1.2,-44.63 -13,-68.4 l -0.34,-12.48 -0.51,0 0,-9.58"
     id="path19507"
     inkscape:connector-curvature="0" />
  <path
     style="fill:none;stroke:#000000"
     inkscape:connector-curvature="0"
     id="path19685"
     d="m 136.39994,598.91247 7.01,0 c 0,0 4.11,-9.918 6.16,-34.371" />
  <path
     inkscape:connector-curvature="0"
     style="fill:none;stroke:#000000;stroke-width:1.20000005;stroke-linecap:round"
     d="m 130.92994,564.54147 -15.22,0 2.57,0 0,26.676 -9.07,0 0,3.422 -35.56,0 c 0,0 -4.97,0 -4.97,-5.817 l 0,-18.125 39.85,-35.738 0,-25.651 -79.86,0 0,5.99 -4.44,0 0,-60.02 c 0,0 0,-1.54 0.68,-1.54 0,0 2.23,0.68 2.23,4.27 l 0,9.06 1.53,3.25 0,39.16"
     id="path19713" />
  <path
     style="fill:none;stroke:#000000;stroke-width:1.20000005;stroke-linecap:round"
     d="m 28.66994,480.57847 72.51,-63.26 c 0,0 -0.69,-10.44 5.81,-28.22 0,0 8.38,-26.33 10.6,-57.45 0,0 -0.17,-10.95 2.74,-10.95 0,0 1.19,-44.63 12.99,-68.4 l 0.35,-12.48 0.51,0 0,-9.58"
     id="path19715"
     inkscape:connector-curvature="0" />
  <path
     style="fill:none;stroke:#000000"
     inkscape:connector-curvature="0"
     id="path19877"
     d="m 138.13851,598.91247 -13.19857,0 c 0,0 -4.1,-9.918 -6.15,-34.371"
     sodipodi:nodetypes="ccc" />
</svg>
